<mxfile host="Electron" agent="Mozilla/5.0 (Windows NT 10.0; Win64; x64) AppleWebKit/537.36 (KHTML, like Gecko) draw.io/24.7.5 Chrome/126.0.6478.183 Electron/31.3.0 Safari/537.36" version="24.7.5">
  <diagram name="Page-1" id="e7e014a7-5840-1c2e-5031-d8a46d1fe8dd">
    <mxGraphModel dx="546" dy="819" grid="1" gridSize="10" guides="1" tooltips="1" connect="1" arrows="1" fold="1" page="1" pageScale="1" pageWidth="1169" pageHeight="826" background="none" math="0" shadow="0">
      <root>
        <mxCell id="0" />
        <mxCell id="1" parent="0" />
        <mxCell id="2" value="User" style="swimlane;whiteSpace=wrap;movable=1;resizable=1;rotatable=1;deletable=1;editable=1;locked=0;connectable=1;" parent="1" vertex="1">
          <mxGeometry x="40" y="40" width="190" height="370" as="geometry">
            <mxRectangle x="164.5" y="128" width="70" height="30" as="alternateBounds" />
          </mxGeometry>
        </mxCell>
        <mxCell id="5" value="" style="ellipse;shape=startState;fillColor=#000000;strokeColor=default;" parent="2" vertex="1">
          <mxGeometry x="80" y="32" width="30" height="30" as="geometry" />
        </mxCell>
        <mxCell id="6" value="" style="edgeStyle=elbowEdgeStyle;elbow=horizontal;verticalAlign=bottom;endArrow=open;endSize=8;strokeColor=default;endFill=1;rounded=0;entryX=0.5;entryY=0;entryDx=0;entryDy=0;exitX=0.5;exitY=1;exitDx=0;exitDy=0;" parent="2" source="5" target="8" edge="1">
          <mxGeometry x="100" y="40" as="geometry">
            <mxPoint x="95" y="82" as="targetPoint" />
          </mxGeometry>
        </mxCell>
        <mxCell id="8" value="Select agent type" style="" parent="2" vertex="1">
          <mxGeometry x="40" y="90" width="110" height="18" as="geometry" />
        </mxCell>
        <mxCell id="11" value="" style="endArrow=open;strokeColor=default;endFill=1;rounded=0;entryX=0.5;entryY=0;entryDx=0;entryDy=0;" parent="2" source="8" target="eL9iIxsxxshVKPqE0q5u-31" edge="1">
          <mxGeometry relative="1" as="geometry">
            <mxPoint x="135" y="150" as="targetPoint" />
          </mxGeometry>
        </mxCell>
        <mxCell id="eL9iIxsxxshVKPqE0q5u-31" value="Select&#xa;configuration file" style="" vertex="1" parent="2">
          <mxGeometry x="40" y="130" width="110" height="38" as="geometry" />
        </mxCell>
        <mxCell id="eL9iIxsxxshVKPqE0q5u-35" style="edgeStyle=orthogonalEdgeStyle;rounded=0;orthogonalLoop=1;jettySize=auto;html=1;exitX=0.5;exitY=1;exitDx=0;exitDy=0;entryX=0.5;entryY=0;entryDx=0;entryDy=0;endArrow=open;endFill=0;" edge="1" parent="2" source="eL9iIxsxxshVKPqE0q5u-32" target="eL9iIxsxxshVKPqE0q5u-34">
          <mxGeometry relative="1" as="geometry" />
        </mxCell>
        <mxCell id="eL9iIxsxxshVKPqE0q5u-32" value="Select&#xa;Link Library type" style="" vertex="1" parent="2">
          <mxGeometry x="40" y="198" width="110" height="38" as="geometry" />
        </mxCell>
        <mxCell id="eL9iIxsxxshVKPqE0q5u-33" value="" style="endArrow=open;strokeColor=default;endFill=1;rounded=0;entryX=0.5;entryY=0;entryDx=0;entryDy=0;exitX=0.5;exitY=1;exitDx=0;exitDy=0;" edge="1" parent="2" source="eL9iIxsxxshVKPqE0q5u-31" target="eL9iIxsxxshVKPqE0q5u-32">
          <mxGeometry relative="1" as="geometry">
            <mxPoint x="105.5" y="110" as="sourcePoint" />
            <mxPoint x="105.5" y="140" as="targetPoint" />
          </mxGeometry>
        </mxCell>
        <mxCell id="eL9iIxsxxshVKPqE0q5u-34" value="Name agent" style="" vertex="1" parent="2">
          <mxGeometry x="40" y="263" width="110" height="18" as="geometry" />
        </mxCell>
        <mxCell id="eL9iIxsxxshVKPqE0q5u-43" value="Start agent" style="" vertex="1" parent="2">
          <mxGeometry x="40" y="313" width="110" height="18" as="geometry" />
        </mxCell>
        <mxCell id="eL9iIxsxxshVKPqE0q5u-44" style="edgeStyle=orthogonalEdgeStyle;rounded=0;orthogonalLoop=1;jettySize=auto;html=1;exitX=0.5;exitY=1;exitDx=0;exitDy=0;entryX=0.5;entryY=0;entryDx=0;entryDy=0;endArrow=open;endFill=0;" edge="1" parent="2" source="eL9iIxsxxshVKPqE0q5u-34" target="eL9iIxsxxshVKPqE0q5u-43">
          <mxGeometry relative="1" as="geometry">
            <mxPoint x="105.5" y="243" as="sourcePoint" />
            <mxPoint x="105.5" y="273" as="targetPoint" />
          </mxGeometry>
        </mxCell>
        <mxCell id="3" value="Deployment Agent" style="swimlane;whiteSpace=wrap;startSize=23;movable=1;resizable=1;rotatable=1;deletable=1;editable=1;locked=0;connectable=1;" parent="1" vertex="1">
          <mxGeometry x="230" y="40" width="190" height="370" as="geometry" />
        </mxCell>
        <mxCell id="yxcOJN_tR7zmJK4Rsbfi-89" value="" style="edgeStyle=elbowEdgeStyle;elbow=horizontal;verticalAlign=bottom;endArrow=open;endSize=8;strokeColor=default;endFill=1;rounded=0;entryX=0.5;entryY=0;entryDx=0;entryDy=0;exitX=0.5;exitY=1;exitDx=0;exitDy=0;" parent="3" target="eL9iIxsxxshVKPqE0q5u-54" edge="1" source="SXM109CUkSXIK03SZ1es-36">
          <mxGeometry x="40" y="20" as="geometry">
            <mxPoint x="540.6190476190475" y="238" as="targetPoint" />
            <mxPoint x="95.5" y="70" as="sourcePoint" />
          </mxGeometry>
        </mxCell>
        <mxCell id="SXM109CUkSXIK03SZ1es-32" value="" style="ellipse;html=1;shape=endState;fillColor=#000000;strokeColor=default;" parent="3" vertex="1">
          <mxGeometry x="80" y="330" width="30" height="30" as="geometry" />
        </mxCell>
        <mxCell id="SXM109CUkSXIK03SZ1es-36" value="Instantiate&#xa;agent type" style="" parent="3" vertex="1">
          <mxGeometry x="40" y="42" width="110" height="38" as="geometry" />
        </mxCell>
        <mxCell id="eL9iIxsxxshVKPqE0q5u-54" value="Pass configuration&#xa;file" style="" vertex="1" parent="3">
          <mxGeometry x="40" y="110" width="110" height="38" as="geometry" />
        </mxCell>
        <mxCell id="eL9iIxsxxshVKPqE0q5u-55" value="Pass marketplace&#xa;file" style="" vertex="1" parent="3">
          <mxGeometry x="40" y="170" width="110" height="38" as="geometry" />
        </mxCell>
        <mxCell id="eL9iIxsxxshVKPqE0q5u-56" value="" style="edgeStyle=elbowEdgeStyle;elbow=horizontal;verticalAlign=bottom;endArrow=open;endSize=8;strokeColor=default;endFill=1;rounded=0;entryX=0.5;entryY=0;entryDx=0;entryDy=0;exitX=0.5;exitY=1;exitDx=0;exitDy=0;" edge="1" parent="3" source="eL9iIxsxxshVKPqE0q5u-54" target="eL9iIxsxxshVKPqE0q5u-55">
          <mxGeometry x="-280" y="-20" as="geometry">
            <mxPoint x="105" y="120" as="targetPoint" />
            <mxPoint x="105.5" y="80" as="sourcePoint" />
          </mxGeometry>
        </mxCell>
        <mxCell id="18" value="Pass Link&#xa;Library type" style="" parent="3" vertex="1">
          <mxGeometry x="40" y="230" width="110" height="38" as="geometry" />
        </mxCell>
        <mxCell id="yxcOJN_tR7zmJK4Rsbfi-78" style="edgeStyle=orthogonalEdgeStyle;rounded=0;orthogonalLoop=1;jettySize=auto;html=1;exitX=0.5;exitY=1;exitDx=0;exitDy=0;endArrow=open;endFill=0;entryX=0.5;entryY=0;entryDx=0;entryDy=0;" parent="3" source="18" target="eL9iIxsxxshVKPqE0q5u-102" edge="1">
          <mxGeometry relative="1" as="geometry">
            <Array as="points" />
            <mxPoint x="77.5" y="240" as="sourcePoint" />
            <mxPoint x="95" y="320.0000000000001" as="targetPoint" />
          </mxGeometry>
        </mxCell>
        <mxCell id="eL9iIxsxxshVKPqE0q5u-57" value="" style="edgeStyle=elbowEdgeStyle;elbow=horizontal;verticalAlign=bottom;endArrow=open;endSize=8;strokeColor=default;endFill=1;rounded=0;entryX=0.5;entryY=0;entryDx=0;entryDy=0;exitX=0.5;exitY=1;exitDx=0;exitDy=0;" edge="1" parent="3" source="eL9iIxsxxshVKPqE0q5u-55" target="18">
          <mxGeometry x="-600" y="-60" as="geometry">
            <mxPoint x="105" y="190" as="targetPoint" />
            <mxPoint x="105" y="158" as="sourcePoint" />
          </mxGeometry>
        </mxCell>
        <mxCell id="eL9iIxsxxshVKPqE0q5u-103" style="edgeStyle=orthogonalEdgeStyle;rounded=0;orthogonalLoop=1;jettySize=auto;html=1;exitX=0.5;exitY=1;exitDx=0;exitDy=0;entryX=0.5;entryY=0;entryDx=0;entryDy=0;endArrow=open;endFill=0;" edge="1" parent="3" source="eL9iIxsxxshVKPqE0q5u-102" target="SXM109CUkSXIK03SZ1es-32">
          <mxGeometry relative="1" as="geometry" />
        </mxCell>
        <mxCell id="eL9iIxsxxshVKPqE0q5u-102" value="Deploy agent" style="" vertex="1" parent="3">
          <mxGeometry x="40" y="290" width="110" height="18" as="geometry" />
        </mxCell>
        <mxCell id="eL9iIxsxxshVKPqE0q5u-36" style="edgeStyle=orthogonalEdgeStyle;rounded=0;orthogonalLoop=1;jettySize=auto;html=1;exitX=0.5;exitY=1;exitDx=0;exitDy=0;entryX=0;entryY=0.5;entryDx=0;entryDy=0;endArrow=open;endFill=0;" edge="1" parent="1" source="eL9iIxsxxshVKPqE0q5u-43" target="SXM109CUkSXIK03SZ1es-36">
          <mxGeometry relative="1" as="geometry">
            <mxPoint x="310.5" y="360" as="sourcePoint" />
            <mxPoint x="420" y="70.00000000000006" as="targetPoint" />
            <Array as="points">
              <mxPoint x="135" y="390" />
              <mxPoint x="250" y="390" />
              <mxPoint x="250" y="101" />
            </Array>
          </mxGeometry>
        </mxCell>
      </root>
    </mxGraphModel>
  </diagram>
</mxfile>
